<!DOCTYPE svg PUBLIC "-//W3C//DTD SVG 20010904//EN" "http://www.w3.org/TR/2001/REC-SVG-20010904/DTD/svg10.dtd">
<svg version="1.0" xmlns="http://www.w3.org/2000/svg" width="1600px" height="1600px" viewBox="0 0 16000 16000" preserveAspectRatio="xMidYMid meet">
<g id="layer101" fill="#000000" stroke="none">
 <path d="M0 8000 l0 -8000 8000 0 8000 0 0 8000 0 8000 -8000 0 -8000 0 0 -8000z"/>
 </g>
<g id="layer102" fill="#ffffff" stroke="none">
 <path d="M0 8000 l0 -8000 8000 0 8000 0 0 8000 0 8000 -8000 0 -8000 0 0 -8000z m8513 6614 l117 -6 0 -58 0 -58 63 -6 c34 -3 134 -11 222 -17 88 -6 161 -12 163 -14 2 -1 -4 -97 -13 -211 -8 -115 -22 -301 -30 -414 -26 -362 -55 -743 -61 -798 l-6 -53 -56 6 c-94 9 -406 34 -577 45 -88 6 -261 19 -385 28 l-224 17 2 50 c3 57 43 606 72 985 11 140 23 297 26 348 4 50 10 92 13 92 3 0 87 -7 186 -15 99 -8 199 -15 223 -15 l42 0 0 56 0 56 53 -5 c28 -4 105 -9 170 -13z m-1659 -101 c14 -76 -7 -74 237 -25 121 24 221 43 223 41 5 -9 288 -1441 284 -1444 -10 -10 -1212 -245 -1219 -238 -8 10 -294 1432 -288 1438 2 2 99 22 214 46 116 23 214 45 218 49 4 4 3 28 -3 55 -6 26 -9 49 -7 51 5 5 288 62 313 63 18 1 23 -6 28 -36z m2923 -248 c98 -36 188 -70 201 -75 36 -16 39 -13 57 40 9 28 20 50 25 50 22 0 305 -109 308 -119 2 -7 -3 -30 -12 -53 -9 -22 -14 -43 -11 -46 6 -6 58 -26 303 -114 61 -22 112 -43 112 -47 0 -3 -61 -175 -135 -381 -75 -206 -186 -514 -247 -685 -61 -170 -113 -311 -114 -313 -4 -6 -65 15 -374 128 -168 61 -413 150 -545 197 -132 47 -244 89 -249 94 -4 4 48 164 117 356 380 1052 373 1033 382 1033 2 0 84 -29 182 -65z m1728 -816 c143 -104 310 -225 370 -269 250 -180 431 -313 444 -325 12 -12 2 -31 -68 -127 -45 -62 -90 -124 -100 -137 l-18 -24 -299 218 c-165 120 -328 240 -364 266 -36 27 -67 49 -70 48 -7 0 -119 -156 -125 -172 -2 -7 103 -90 248 -195 297 -215 287 -207 287 -216 0 -4 -44 -67 -97 -141 -62 -87 -100 -131 -107 -126 -6 5 -71 52 -143 105 -73 53 -192 139 -265 192 l-131 96 -18 -23 c-40 -54 -49 -132 -20 -194 24 -51 40 -65 261 -225 307 -222 371 -271 368 -281 -2 -5 -45 -67 -97 -139 l-95 -130 -25 17 c-14 9 -66 46 -116 83 -49 36 -173 127 -275 200 -226 164 -304 239 -356 344 -32 66 -38 89 -42 159 -6 122 27 230 106 350 l26 39 -43 37 -44 37 58 80 c105 144 137 184 147 184 5 0 24 -11 42 -25 42 -32 50 -31 71 3 10 15 38 54 63 86 l44 59 -25 19 c-74 54 -77 38 31 185 53 73 102 133 107 133 6 0 127 -86 270 -191z m-6611 -209 c173 -44 296 -161 355 -337 43 -127 18 -303 -59 -423 -98 -153 -300 -246 -477 -220 -134 19 -209 55 -297 144 -121 121 -169 281 -136 456 34 178 192 339 376 384 83 20 149 19 238 -4z m3536 -1349 c816 -109 1532 -437 2147 -984 776 -691 1268 -1707 1320 -2729 5 -111 4 -128 -9 -128 -9 0 -94 16 -189 35 -96 18 -406 79 -689 135 -443 87 -1230 242 -1650 325 -230 45 -1202 236 -1460 286 -140 27 -309 61 -375 74 -66 13 -352 70 -635 125 -283 56 -742 146 -1020 200 -278 55 -622 123 -765 151 -481 94 -809 159 -812 163 -5 5 179 363 227 441 215 350 458 646 740 901 621 560 1356 900 2175 1003 225 29 228 29 545 26 226 -2 319 -7 450 -24z m-5482 -296 c110 -40 427 -220 426 -242 0 -10 -96 -188 -212 -396 -117 -208 -210 -382 -207 -387 3 -5 25 -16 50 -26 58 -22 116 -14 168 23 44 31 62 60 272 433 76 135 139 246 140 248 2 2 284 -154 293 -163 5 -5 -291 -538 -360 -647 -59 -93 -163 -192 -234 -225 -119 -54 -257 -52 -397 7 -53 22 -382 197 -405 216 -2 1 93 176 212 389 119 213 217 391 219 398 3 14 -43 37 -88 44 -95 15 -157 -31 -240 -179 -32 -57 -108 -191 -168 -298 -60 -107 -116 -205 -123 -217 -14 -22 -15 -21 -159 60 -80 44 -145 85 -145 89 0 13 329 597 374 663 79 118 194 207 304 235 64 16 199 4 280 -25z m9944 -166 c198 -43 367 -225 386 -417 21 -209 -55 -381 -214 -487 -292 -194 -679 -43 -769 301 -27 106 -13 226 42 342 32 69 136 176 209 214 101 54 230 71 346 47z m-10933 -1249 c74 -17 136 -32 138 -33 1 -2 -2 -19 -7 -38 -19 -65 -14 -77 31 -84 23 -4 85 -20 138 -35 543 -155 775 -502 711 -1063 -9 -76 -65 -355 -73 -363 -1 -2 -41 6 -87 17 -47 11 -120 27 -162 37 -92 20 -89 11 -52 162 34 141 43 345 20 444 -25 107 -71 193 -140 262 -68 68 -124 103 -229 146 -63 25 -246 73 -252 66 -2 -3 -24 -99 -95 -407 -24 -101 -28 -136 -19 -141 6 -5 39 -13 73 -20 34 -6 77 -16 97 -21 l37 -9 -19 -83 c-10 -45 -26 -117 -35 -161 -10 -43 -23 -80 -30 -83 -6 -2 -117 20 -245 51 -129 30 -249 57 -266 61 -18 4 -33 12 -33 18 0 7 12 59 26 117 14 58 31 134 39 170 15 68 51 225 109 475 20 83 57 242 83 353 l47 204 31 -6 c16 -2 91 -19 164 -36z m12315 -712 c13 -96 46 -358 55 -431 5 -43 11 -80 13 -82 2 -1 26 1 53 5 29 4 52 4 56 -2 9 -14 40 -318 34 -328 -4 -6 -23 -10 -43 -10 -63 0 -63 0 -42 -160 39 -302 50 -403 45 -408 -6 -6 -269 -41 -312 -42 -19 0 -22 7 -29 56 l-6 55 -37 -5 c-55 -8 -244 -33 -476 -61 -115 -14 -224 -28 -241 -31 -30 -4 -31 -5 -26 -58 3 -39 1 -54 -10 -58 -27 -11 -318 -41 -325 -34 -4 4 -7 71 -8 149 0 138 1 143 28 190 54 92 150 136 338 157 57 6 114 13 127 16 26 5 27 -17 -14 296 -13 103 -24 199 -24 215 0 52 -6 54 -125 38 -61 -8 -140 -15 -176 -15 -186 0 -280 91 -312 306 -8 54 -13 101 -12 102 5 6 266 41 301 42 33 0 44 -13 44 -55 0 -40 9 -52 38 -48 15 2 83 10 152 19 69 8 197 24 285 35 88 10 195 24 238 30 l79 12 -7 53 c-3 30 -5 54 -3 55 27 6 264 37 295 38 l42 1 5 -42z m-8227 -778 c341 -44 611 -312 638 -632 6 -64 -6 -202 -18 -215 -3 -2 -24 1 -48 6 -24 6 -240 49 -479 96 -239 47 -534 104 -655 128 l-220 43 2 41 c2 61 58 191 114 266 147 196 408 301 666 267z m-3747 -350 c5 -54 6 -55 35 -53 64 5 413 33 473 38 55 5 62 3 63 -12 0 -10 6 -85 13 -168 7 -85 8 -153 3 -156 -5 -3 -64 -9 -131 -13 -156 -9 -415 -32 -421 -38 -5 -4 35 -522 41 -546 3 -10 24 -12 101 -5 54 4 136 8 183 7 195 -2 290 -104 310 -329 4 -49 7 -91 6 -92 -5 -6 -331 -31 -338 -27 -4 3 -8 27 -8 55 l0 49 -35 0 c-19 0 -90 -5 -157 -10 -241 -20 -755 -60 -850 -66 l-98 -7 0 29 c0 15 -5 90 -11 167 -6 76 -9 140 -7 142 2 2 98 11 213 19 116 9 241 19 279 22 l69 7 -7 101 c-7 110 -37 460 -40 462 0 1 -93 -6 -206 -16 -113 -10 -239 -20 -280 -22 l-75 -3 -12 130 c-6 72 -12 148 -12 171 l-1 41 123 7 c126 7 320 22 395 32 l42 5 0 55 c0 36 4 54 13 55 6 0 75 6 152 13 77 8 147 13 155 12 11 -1 16 -17 20 -56z m7298 -346 c263 -54 472 -231 555 -473 25 -72 30 -103 31 -186 1 -127 -8 -175 -34 -175 -10 0 -86 13 -167 29 -81 16 -323 64 -538 106 -471 92 -632 124 -664 131 -22 5 -23 8 -16 52 4 26 19 77 35 114 125 300 464 471 798 402z m-5525 -144 c86 -18 338 -67 1632 -321 281 -55 564 -111 630 -124 66 -13 352 -70 635 -125 506 -99 853 -168 1300 -256 252 -50 265 -52 1015 -199 565 -111 967 -190 1295 -255 107 -21 371 -73 585 -115 215 -41 398 -79 407 -83 16 -6 12 -21 -40 -132 -316 -681 -838 -1275 -1474 -1678 -522 -332 -1074 -526 -1703 -598 -206 -24 -642 -25 -850 -1 -919 104 -1746 504 -2394 1157 -588 593 -971 1348 -1105 2180 -40 244 -60 570 -36 570 6 0 52 -9 103 -20z m9533 -175 c77 -8 211 -23 299 -34 88 -10 234 -27 323 -37 l164 -19 -7 -75 c-4 -41 -13 -129 -21 -195 -7 -66 -21 -183 -30 -260 -9 -77 -17 -141 -19 -143 -4 -4 -329 29 -334 34 -2 2 4 78 15 169 l20 165 -31 5 c-48 8 -339 42 -475 55 -141 14 -188 7 -238 -35 -38 -32 -57 -81 -72 -183 -11 -73 -15 -82 -34 -82 -24 0 -309 32 -314 36 -10 7 33 246 54 302 62 165 178 272 326 301 69 14 224 12 374 -4z m-592 -780 c82 -30 151 -57 154 -60 3 -2 -3 -25 -12 -50 -10 -24 -15 -49 -12 -53 3 -5 32 -19 63 -30 102 -38 402 -148 588 -217 313 -116 400 -148 403 -150 2 -2 -29 -90 -69 -196 -123 -333 -207 -479 -360 -622 l-87 -83 79 -28 c43 -15 79 -31 79 -36 0 -15 -102 -295 -110 -304 -8 -8 -50 4 -210 64 -47 17 -132 49 -190 70 -58 21 -179 66 -270 100 -91 34 -212 79 -270 100 -279 102 -430 159 -439 164 -12 8 100 316 116 316 7 0 108 -35 225 -79 117 -43 256 -93 308 -111 256 -88 456 -28 615 183 59 79 149 248 137 258 -7 6 -40 19 -407 154 -99 37 -223 83 -275 102 -161 59 -224 106 -266 198 -38 80 -31 155 28 313 11 28 22 52 26 52 4 0 74 -25 156 -55z m-10520 -310 c10 -25 22 -45 27 -45 5 0 38 9 72 21 79 27 234 36 308 19 80 -18 151 -63 218 -136 65 -72 107 -150 191 -359 29 -71 86 -213 126 -314 41 -101 73 -185 72 -186 -4 -4 -305 -125 -311 -125 -2 0 -30 64 -62 143 -187 460 -219 535 -242 566 -37 49 -102 75 -167 67 -94 -12 -106 42 102 -476 19 -47 42 -106 53 -131 l18 -47 -156 -62 c-85 -34 -158 -58 -163 -54 -4 5 -57 133 -118 285 -128 318 -133 329 -143 329 -8 0 -192 -70 -198 -75 -2 -2 38 -107 89 -232 51 -125 127 -314 170 -420 l77 -192 -36 -15 c-20 -9 -91 -38 -159 -65 -122 -50 -123 -50 -131 -28 -10 24 -164 407 -366 907 -70 173 -128 321 -129 328 -1 13 289 135 307 129 5 -1 18 -23 28 -47 10 -26 23 -44 31 -42 40 9 188 76 188 86 0 5 -7 30 -16 53 -9 24 -15 45 -13 46 14 10 287 116 300 116 10 1 23 -16 33 -44z m9953 -1238 c50 -26 157 -92 573 -357 124 -78 276 -174 338 -213 61 -39 112 -75 112 -80 0 -6 -6 -18 -13 -26 -8 -9 -47 -69 -87 -133 -40 -65 -77 -118 -82 -118 -8 0 -198 118 -473 295 -44 28 -125 79 -180 114 -55 34 -138 87 -185 117 -47 30 -92 59 -102 64 -13 8 -22 1 -45 -35 -15 -25 -31 -45 -35 -45 -13 0 -278 173 -278 182 0 12 82 136 112 168 33 36 88 76 123 89 49 18 165 6 222 -22z m-8707 -102 c82 -102 99 -129 90 -140 -6 -8 -203 -168 -436 -356 -233 -189 -424 -347 -424 -351 0 -5 33 -50 74 -101 208 -260 269 -332 278 -329 5 1 67 48 136 104 347 279 370 301 393 382 14 47 -15 124 -73 195 -27 34 -48 68 -45 75 6 16 240 206 254 206 15 0 140 -170 172 -236 72 -143 78 -267 18 -396 -57 -123 -108 -173 -522 -507 -373 -302 -388 -312 -405 -295 -9 11 -120 147 -247 304 -126 157 -311 386 -411 510 -99 123 -179 227 -176 231 2 4 61 53 131 110 l126 103 38 -43 37 -44 433 351 c239 193 439 351 445 352 6 0 57 -56 114 -125z m8405 -535 l-39 -40 402 -403 403 -403 -173 -170 c-95 -94 -211 -199 -257 -233 -96 -71 -257 -153 -345 -176 -32 -8 -61 -17 -63 -19 -3 -3 20 -29 51 -59 31 -30 56 -58 56 -63 0 -5 -53 -62 -117 -126 l-118 -117 -523 521 -523 522 120 120 121 121 227 -226 c283 -280 332 -316 475 -339 163 -26 359 49 532 202 l48 43 -310 310 c-258 258 -314 320 -337 368 -63 132 -40 228 88 364 l81 84 120 -120 120 -121 -39 -40z m-7265 -656 c343 -232 712 -484 727 -496 10 -8 -9 -42 -74 -137 -47 -69 -91 -132 -97 -139 -10 -10 -21 -7 -57 18 l-44 30 -20 -27 c-11 -15 -100 -144 -197 -288 -97 -143 -232 -342 -300 -441 l-123 -182 -133 90 c-74 50 -136 96 -138 103 -5 12 14 41 487 734 l139 204 -38 26 c-20 14 -125 85 -232 158 -153 105 -197 130 -206 121 -6 -7 -63 -89 -126 -183 -63 -93 -138 -204 -166 -245 -109 -161 -89 -254 76 -365 l60 -40 -92 -134 c-50 -73 -96 -136 -103 -138 -15 -6 -146 88 -216 156 -72 70 -120 148 -141 227 -28 106 -17 194 36 319 25 57 194 317 373 575 17 25 73 106 124 182 l93 136 116 -80 c65 -43 187 -127 272 -184z m1033 -630 c94 -31 276 -90 402 -130 378 -123 415 -141 480 -233 27 -38 30 -52 34 -127 2 -70 -2 -99 -25 -174 -15 -50 -31 -90 -36 -90 -15 0 -291 89 -306 98 -10 7 -9 17 3 51 8 24 15 47 15 52 0 4 -93 38 -207 75 -115 36 -211 68 -215 70 -3 2 -11 -10 -16 -28 -10 -31 -161 -499 -279 -863 -31 -93 -58 -173 -62 -177 -9 -11 -321 91 -321 104 0 6 9 36 20 67 10 31 67 205 126 386 59 182 126 390 150 463 24 73 44 139 44 146 0 7 -20 19 -45 26 -25 7 -47 16 -50 20 -6 10 97 320 107 320 5 0 86 -25 181 -56z m4214 -179 c142 -48 233 -127 299 -260 71 -144 70 -290 -5 -441 -116 -234 -397 -337 -641 -235 -187 77 -303 257 -302 465 1 219 132 398 344 470 101 35 203 35 305 1z m-1908 -222 l174 -6 -7 -60 c-3 -33 -6 -109 -6 -170 l0 -109 -312 8 c-172 5 -345 9 -384 8 -125 -1 -202 -60 -212 -163 l-4 -48 77 -6 c43 -4 137 -7 209 -7 72 0 188 -3 259 -7 l127 -6 0 -137 c0 -76 -3 -152 -6 -169 l-7 -32 -338 7 -339 7 0 -111 0 -112 68 -1 c62 0 837 -27 837 -28 0 -118 -8 -328 -13 -333 -4 -4 -203 -1 -442 7 -239 7 -544 17 -677 21 l-243 7 0 41 c0 22 3 98 7 168 l6 127 56 3 56 3 3 113 3 112 -56 0 -55 0 0 93 c0 52 3 128 6 170 l7 77 53 0 53 0 6 58 c30 286 166 442 419 483 50 8 338 5 675 -8z"/>
 <path d="M8146 14133 c-3 -27 -13 -149 -21 -273 -8 -124 -20 -278 -26 -344 -5 -65 -9 -120 -7 -122 2 -2 105 -10 228 -19 124 -8 250 -18 281 -21 l56 -6 11 173 c7 96 20 272 29 392 9 119 14 219 11 222 -5 6 -464 45 -525 45 -30 0 -31 -2 -37 -47z"/>
 <path d="M6760 14073 c-145 -30 -266 -55 -267 -57 -3 -3 15 -96 98 -501 11 -55 27 -138 35 -185 9 -47 16 -86 17 -86 3 -3 549 105 553 109 7 7 -152 771 -161 773 -5 1 -129 -23 -275 -53z"/>
 <path d="M9752 13778 c-22 -62 -81 -225 -131 -363 -50 -137 -91 -254 -91 -260 0 -5 42 -25 93 -43 50 -18 158 -57 238 -87 80 -30 157 -57 171 -60 23 -6 26 -1 77 137 167 458 212 591 205 598 -7 7 -506 190 -518 190 -2 0 -22 -51 -44 -112z"/>
 <path d="M13880 9009 c-30 -5 -69 -11 -86 -14 l-31 -5 18 -148 c24 -204 51 -406 54 -410 4 -4 206 26 212 32 6 6 -7 128 -41 391 -24 182 -15 172 -126 154z"/>
 </g>

</svg>